<svg width="56" height="56" viewBox="0 0 56 56" fill="none" xmlns="http://www.w3.org/2000/svg">
<g clip-path="url(#clip0_643_274)">
<rect width="55" height="55" transform="translate(0.334961 0.554321)" fill="white"/>
<path d="M9.44889 23.1043C9.54107 21.9557 10.0625 20.884 10.9093 20.1026C11.7561 19.3212 12.8662 18.8874 14.0185 18.8876H41.6514C42.8037 18.8874 43.9137 19.3212 44.7606 20.1026C45.6074 20.884 46.1288 21.9557 46.221 23.1043L48.0612 46.021C48.1118 46.6516 48.0313 47.2859 47.8248 47.8839C47.6182 48.4819 47.2901 49.0307 46.861 49.4957C46.432 49.9607 45.9114 50.3318 45.3319 50.5857C44.7524 50.8396 44.1266 50.9708 43.4939 50.971H12.176C11.5433 50.9708 10.9175 50.8396 10.338 50.5857C9.75851 50.3318 9.23786 49.9607 8.80882 49.4957C8.37979 49.0307 8.05167 48.4819 7.84512 47.8839C7.63857 47.2859 7.55807 46.6516 7.60868 46.021L9.44889 23.1043V23.1043Z" stroke="black" stroke-opacity="0.84" stroke-width="3" stroke-linecap="round" stroke-linejoin="round"/>
<path d="M37.0015 25.7626V14.3043C37.0015 11.8731 36.0358 9.54157 34.3167 7.82249C32.5976 6.10341 30.266 5.13763 27.8349 5.13763C25.4037 5.13763 23.0722 6.10341 21.3531 7.82249C19.634 9.54157 18.6682 11.8731 18.6682 14.3043V25.7626" stroke="black" stroke-opacity="0.84" stroke-width="3" stroke-linecap="round" stroke-linejoin="round"/>
<path d="M34.2483 35.5638V37.5179H23.0403V35.5638H34.2483ZM29.6887 30.7909V42.6952H27.6111V30.7909H29.6887Z" fill="black"/>
<path d="M34.2483 35.5638H34.4483V35.3638H34.2483V35.5638ZM34.2483 37.5179V37.7179H34.4483V37.5179H34.2483ZM23.0403 37.5179H22.8403V37.7179H23.0403V37.5179ZM23.0403 35.5638V35.3638H22.8403V35.5638H23.0403ZM29.6887 30.7909H29.8887V30.5909H29.6887V30.7909ZM29.6887 42.6952V42.8952H29.8887V42.6952H29.6887ZM27.6111 42.6952H27.4111V42.8952H27.6111V42.6952ZM27.6111 30.7909V30.5909H27.4111V30.7909H27.6111ZM34.0483 35.5638V37.5179H34.4483V35.5638H34.0483ZM34.2483 37.3179H23.0403V37.7179H34.2483V37.3179ZM23.2403 37.5179V35.5638H22.8403V37.5179H23.2403ZM23.0403 35.7638H34.2483V35.3638H23.0403V35.7638ZM29.4887 30.7909V42.6952H29.8887V30.7909H29.4887ZM29.6887 42.4952H27.6111V42.8952H29.6887V42.4952ZM27.8111 42.6952V30.7909H27.4111V42.6952H27.8111ZM27.6111 30.9909H29.6887V30.5909H27.6111V30.9909Z" fill="black"/>
</g>
<defs>
<clipPath id="clip0_643_274">
<rect width="55" height="55" fill="white" transform="translate(0.334961 0.554321)"/>
</clipPath>
</defs>
</svg>
